<svg xmlns="http://www.w3.org/2000/svg" width="91.362" height="29.902" viewBox="0 0 91.362 29.902"><path d="M445.807,117.147a4.9,4.9,0,0,1,.778-.731,2.483,2.483,0,0,0,.423-.382.346.346,0,0,0-.069-.327c-.187-.194-.7-.238-1.43-.116-.047.01-5.113.894-7.5,1.059-.358.016-.538.213-.559.4-.02.159.079.372.413.474.66.2,5.785-.295,5.864-.248-.045.074-2.634,3.421-2.748,3.567-2.593,1.875-8.111,4.645-11.9,4.087a3.169,3.169,0,0,1-2.737-3.064c0-2.823,1.852-5.721,2.645-6.964a36.157,36.157,0,0,1,7.131-7.568c5.383-4.038,9.837-6.17,14.032-6.7,1.365-.171,2.486.017,2.863.473a.623.623,0,0,1,.094.626c-.082.243-.062.414.061.506.267.209.945,0,1.159-.142l.006-.005a1.077,1.077,0,0,0,.615-1,1.628,1.628,0,0,0-.672-1.138c-.933-.7-2.646-.872-4.821-.472-4.319.793-9.6,3.438-14.505,7.254-7.323,5.706-12.188,12.562-11.572,16.3.384,2.352,1.885,3.607,4.74,3.956,5.062.614,9.271-2.533,11.071-3.874l.411-.227-.382.556c-1.583,1.984-2.178,2.989-1.993,3.374.055.123.2.184.434.184a2.22,2.22,0,0,0,2.037-1.05,33.906,33.906,0,0,1,2.315-3.434l1.979-2.85Zm14.675,1.982c.539-.771.739-1.345.611-1.705a.584.584,0,0,0-.414-.361c-.65-.187-1.673-.061-4.344,2.261-1.468,1.284-4.457,4.781-4.522,6a.286.286,0,0,0,.1.327l0-.007.188.048c1.13-.079,6.919-4.466,8.387-6.56m18.491,7.481c.071.136-.015.353-.27.626-1.506,1.581-2.839,2.237-3.658,1.8a2.1,2.1,0,0,1-.907-2.312c.229-1.535,2.291-4.893,3.4-6.691.656-1.062.692-1.137.66-1.174a61.376,61.376,0,0,0-6.339,6.709,1.144,1.144,0,0,1-1,.536c-.365-.052-.693-.386-.94-.951-.261-.626.953-2.835,1.833-4.45.625-1.13.949-1.73.89-1.873-.42-.157-5,4.316-6.288,6.792-.168.327-.359.522-.551.568a.662.662,0,0,1-.527-.158c-.7-.489-1-.868-.866-1.1l.174-.3c1.96-3.338,2.74-4.9,2.542-5.06-.063-.053-.175,0-.36.17l-1.2,1.225c-1.926,2.023-5.144,5.41-6.984,5.45a1.073,1.073,0,0,1-.792-.289c-.761-.736.337-3.027.823-3.848.071-.126.184-.339.11-.4-.039-.035-.112-.009-.243.093l-.106.088c-3.327,2.7-5.642,4.276-6.358,4.316a1.6,1.6,0,0,1-1.3-.458,1.637,1.637,0,0,1-.387-1.321c.218-1.875,3.1-5.723,6.343-7.69,1.767-1.073,3.34-1.392,4.546-.926.958.365.634,1.551.449,2.037.043.045,1.036-.064,1.205.274.078.142-.007.353-.258.633-1.873,2.068-3.419,5.284-3.366,6.129l.079.2c.667.558,5.237-3.817,6.967-5.847,1.964-2.306,2.727-2.49,3.009-2.393.554.2.828.48.828.863a16.133,16.133,0,0,1-1.863,3.5l-.136.23c-.015.028-.434.758-.332.831.033.028.085.006.238-.17,1.3-1.5,4.5-4.612,5.279-4.767a1.059,1.059,0,0,1,.875.2,1.019,1.019,0,0,1,.314.857,32.71,32.71,0,0,1-2.035,4.287l-.155.3c-.059.112-.455.935-.293,1.042.057.04.172.01.555-.474.45-.568,5.893-6.876,6.921-6.479.7.274.924.714.687,1.353a26.777,26.777,0,0,1-1.5,2.592c-.818,1.317-1.737,2.817-2.231,3.853-.666,1.375-.861,2.548-.5,3a.733.733,0,0,0,.8.174,4.934,4.934,0,0,0,1.942-1.44c.129-.139.23-.17.279-.16m7.463-7.983a1.248,1.248,0,0,0-1.2-.189c-.506.142-1.565.42-2.9,2.583-1.088,1.741-1.456,3.255-.987,4.049a.815.815,0,0,0,.713.425h.054c1.672-.076,4.29-3.454,4.6-5.464a1.471,1.471,0,0,0-.275-1.4m28.226.492a.662.662,0,0,1-.6.429,1.866,1.866,0,0,1-1.407-.691c-.106-.129-.4-.129-.616-.1-1.452.148-5.145,1.8-7.293,5.962-.408.79-.856,1.279-1.27,1.386a.571.571,0,0,1-.472-.08l-.084-.059c-.6-.411-.826-.566-.455-1.209,1.86-3.3,2.743-5.51,2.425-6.057a.26.26,0,0,0-.242-.135c-.459,0-1.528,1.175-2.881,2.665-2.032,2.241-4.564,5.027-6.118,4.993a1.022,1.022,0,0,1-.794-.388c-.726-.871,1.072-3.707,2.043-5.224.514-.809.609-.975.552-1.023l-.154.055a22.8,22.8,0,0,0-1.833,1.785c-1.919,1.987-4.551,4.707-6.13,4.658a1.045,1.045,0,0,1-.79-.37c-.761-.883.5-2.843,1.729-4.729l.7-1.1.012-.135-.136.013a19.351,19.351,0,0,1-3.481,1.879l-.483.222a10.1,10.1,0,0,1-2.957,3.626,3.126,3.126,0,0,1-3.807.138,2.877,2.877,0,0,1-.689-2.012,4.775,4.775,0,0,1,.362-1.63c.917-2.34,3.735-4.945,5.864-4.67a2.086,2.086,0,0,1,1.706,1.091,3.421,3.421,0,0,1-.057,2.4l-.01.017.028.083.138.009a13.969,13.969,0,0,0,4.012-2.359l.343-.532c.2-.356.4-.723.724-.793a.941.941,0,0,1,.75.236c.947.669-.6,2.942-1.841,4.766a17.347,17.347,0,0,0-1.143,1.827c-.183.4-.217.652-.1.746.151.126.525-.025,1.138-.472a53.189,53.189,0,0,0,6.843-6.663,1.038,1.038,0,0,1,.953-.336,1.108,1.108,0,0,1,.816.833c.07.209-.286.777-.781,1.564l-.428.676c-1.617,2.623-2.29,3.972-2.192,4.369a.274.274,0,0,0,.2.219c.551.144,2.066-1.468,3.822-3.333,2.037-2.16,4.349-4.614,5.265-4.336,1.145.336.555,2.468.237,3.611-.161.573-.207.771-.137.817l.028.007.116-.067c3.009-3.02,5.567-3.778,6.978-3.778a1.873,1.873,0,0,1,1.031.224c.6.441.606.8.555.977m-65.314,5.168c.023.032-.008.139-.19.338a6.949,6.949,0,0,1-3.534,1.994,2.2,2.2,0,0,1-2.015-.565,1.616,1.616,0,0,1-.052-1.616c1.073-2.794,8.708-12.04,10.144-13.476,1.315-1.3,2.3-1.971,2.846-1.941a.438.438,0,0,1,.328.165c.124.155-.225.561-.755,1.162l-1.245,1.5-8.3,11.079c-.444.574-1.392,1.968-.641,2.556.66.517,1.732-.213,2.972-1.059.2-.133.4-.184.439-.136" transform="translate(-423.321 -99.266)" fill="#fff"/></svg>